<svg xmlns="http://www.w3.org/2000/svg" width="1200" height="630" viewBox="0 0 1200 630">
  <rect width="1200" height="630" fill="#111A2B"/>
  <rect x="0" y="0" width="1200" height="8" fill="#9A6B0B"/>
  <text x="600" y="96" text-anchor="middle" font-family="ui-monospace,monospace" font-size="22" letter-spacing="4" fill="#7C89A0">SHIPROOM · VERDICT</text>
  <text x="600" y="185" text-anchor="middle" font-family="Georgia,serif" font-weight="bold" font-size="64" fill="#F5F7FA">Shiproom</text>
  <text x="600" y="262" text-anchor="middle" font-family="Georgia,serif" font-size="52" fill="#9A6B0B">Ship &amp; See</text>
  <text x="600" y="305" text-anchor="middle" font-family="ui-monospace,monospace" font-size="22" fill="#B4C0D3">Ship &amp; See 5 · Shelve 1 · Invest 1</text>
  <rect x="138" y="330" width="120" height="110" rx="10" fill="#9A6B0B"/>
      <text x="198" y="470" text-anchor="middle" font-family="ui-monospace,monospace" font-size="19" fill="#8A96AC">CTO</text>
<rect x="272" y="330" width="120" height="110" rx="10" fill="#9A6B0B"/>
      <text x="332" y="470" text-anchor="middle" font-family="ui-monospace,monospace" font-size="19" fill="#8A96AC">CFO</text>
<rect x="406" y="330" width="120" height="110" rx="10" fill="#9C3B2E"/>
      <text x="466" y="470" text-anchor="middle" font-family="ui-monospace,monospace" font-size="19" fill="#8A96AC">VC</text>
<rect x="540" y="330" width="120" height="110" rx="10" fill="#1E6B4F"/>
      <text x="600" y="470" text-anchor="middle" font-family="ui-monospace,monospace" font-size="19" fill="#8A96AC">CMO</text>
<rect x="674" y="330" width="120" height="110" rx="10" fill="#9A6B0B"/>
      <text x="734" y="470" text-anchor="middle" font-family="ui-monospace,monospace" font-size="19" fill="#8A96AC">CEO</text>
<rect x="808" y="330" width="120" height="110" rx="10" fill="#9A6B0B"/>
      <text x="868" y="470" text-anchor="middle" font-family="ui-monospace,monospace" font-size="19" fill="#8A96AC">ICP</text>
<rect x="942" y="330" width="120" height="110" rx="10" fill="#9A6B0B"/>
      <text x="1002" y="470" text-anchor="middle" font-family="ui-monospace,monospace" font-size="19" fill="#8A96AC">Chair</text>
  
  <text x="600" y="602" text-anchor="middle" font-family="ui-monospace,monospace" font-size="19" fill="#7C89A0">Run your own council → github.com/nicobts/shiproom</text>
</svg>